<?xml version="1.0" encoding="UTF-8" standalone="no"?>
<svg
   x="0px"
   y="0px"
   width="5000"
   height="5000"
   viewBox="0 0 500 500"
   style="enable-background:new 0 0 500 500;"
   version="1.1"
   id="svg24"
   sodipodi:docname="shy.svg"
   inkscape:version="1.1.2 (b8e25be833, 2022-02-05)"
   xmlns:inkscape="http://www.inkscape.org/namespaces/inkscape"
   xmlns:sodipodi="http://sodipodi.sourceforge.net/DTD/sodipodi-0.dtd"
   xmlns="http://www.w3.org/2000/svg"
   xmlns:svg="http://www.w3.org/2000/svg">
  <defs
     id="defs28" />
  <sodipodi:namedview
     id="namedview26"
     pagecolor="#ffffff"
     bordercolor="#666666"
     borderopacity="1.0"
     inkscape:pageshadow="2"
     inkscape:pageopacity="0.0"
     inkscape:pagecheckerboard="0"
     showgrid="false"
     inkscape:zoom="1.662"
     inkscape:cx="250"
     inkscape:cy="297.83394"
     inkscape:window-width="1920"
     inkscape:window-height="1017"
     inkscape:window-x="-8"
     inkscape:window-y="-8"
     inkscape:window-maximized="1"
     inkscape:current-layer="svg24" />
  <!--left eye-->
  <path
     style="color:#000000;fill:#000000;-inkscape-stroke:none"
     d="m 145,160 c -44.00507,0 -80,35.99493 -80,80 0,44.00507 35.99493,80 80,80 44.00507,0 80,-35.99493 80,-80 0,-44.00507 -35.99493,-80 -80,-80 z m 0,30 c 27.79188,0 50,22.20812 50,50 0,27.79188 -22.20812,50 -50,50 -27.79188,0 -50,-22.20812 -50,-50 0,-27.79188 22.20812,-50 50,-50 z"
     id="circle2" />
  <g
     id="circle4">
    <path
       style="color:#000000;fill:#000000;stroke-width:4%;-inkscape-stroke:none"
       d="m 150,240 a 5,5 0 0 1 -5,5 5,5 0 0 1 -5,-5 5,5 0 0 1 5,-5 5,5 0 0 1 5,5 z"
       id="path928" />
    <path
       style="color:#000000;fill:#000000;-inkscape-stroke:none"
       d="m 145,225 c -8.16582,0 -15,6.83418 -15,15 0,8.16582 6.83418,15 15,15 8.16582,0 15,-6.83418 15,-15 0,-8.16582 -6.83418,-15 -15,-15 z m 0,10 c 2.64297,0 5,2.35703 5,5 0,2.64297 -2.35703,5 -5,5 -2.64297,0 -5,-2.35703 -5,-5 0,-2.64297 2.35703,-5 5,-5 z"
       id="path930" />
  </g>
  <!--right eye-->
  <path
     style="color:#000000;fill:#000000;-inkscape-stroke:none"
     d="m 355,160 c -44.00507,0 -80,35.99493 -80,80 0,44.00507 35.99493,80 80,80 44.00507,0 80,-35.99493 80,-80 0,-44.00507 -35.99493,-80 -80,-80 z m 0,30 c 27.79188,0 50,22.20812 50,50 0,27.79188 -22.20812,50 -50,50 -27.79188,0 -50,-22.20812 -50,-50 0,-27.79188 22.20812,-50 50,-50 z"
     id="circle6" />
  <g
     id="circle8">
    <path
       style="color:#000000;fill:#000000;stroke-width:4%;-inkscape-stroke:none"
       d="m 360,240 a 5,5 0 0 1 -5,5 5,5 0 0 1 -5,-5 5,5 0 0 1 5,-5 5,5 0 0 1 5,5 z"
       id="path918" />
    <path
       style="color:#000000;fill:#000000;-inkscape-stroke:none"
       d="m 355,225 c -8.16582,0 -15,6.83418 -15,15 0,8.16582 6.83418,15 15,15 8.16582,0 15,-6.83418 15,-15 0,-8.16582 -6.83418,-15 -15,-15 z m 0,10 c 2.64297,0 5,2.35703 5,5 0,2.64297 -2.35703,5 -5,5 -2.64297,0 -5,-2.35703 -5,-5 0,-2.64297 2.35703,-5 5,-5 z"
       id="path920" />
  </g>
  <!--left cheek markings-->
  <g
     id="line10">
    <path
       style="color:#000000;fill:#000000;stroke-width:6%;stroke-linecap:round;-inkscape-stroke:none"
       d="m 50,350 25,50"
       id="path912" />
    <path
       style="color:#000000;fill:#000000;stroke-linecap:round;-inkscape-stroke:none"
       d="m 50.898437,335.02734 a 15,15 0 0 0 -7.607421,1.55664 15,15 0 0 0 -6.707032,20.125 l 25,50 a 15,15 0 0 0 20.125,6.70704 15,15 0 0 0 6.707032,-20.125 l -25,-50 a 15,15 0 0 0 -12.517579,-8.26368 z"
       id="path914" />
  </g>
  <g
     id="line12">
    <path
       style="color:#000000;fill:#000000;stroke-width:6%;stroke-linecap:round;-inkscape-stroke:none"
       d="m 100,350 25,50"
       id="path906" />
    <path
       style="color:#000000;fill:#000000;stroke-linecap:round;-inkscape-stroke:none"
       d="m 100.89844,335.02734 a 15,15 0 0 0 -7.607424,1.55664 15,15 0 0 0 -6.707032,20.125 l 24.999996,50 a 15,15 0 0 0 20.125,6.70704 15,15 0 0 0 6.70704,-20.125 l -25,-50 a 15,15 0 0 0 -12.51758,-8.26368 z"
       id="path908" />
  </g>
  <g
     id="line14">
    <path
       style="color:#000000;fill:#000000;stroke-width:6%;stroke-linecap:round;-inkscape-stroke:none"
       d="m 150,350 25,50"
       id="path900" />
    <path
       style="color:#000000;fill:#000000;stroke-linecap:round;-inkscape-stroke:none"
       d="m 150.89844,335.02734 a 15,15 0 0 0 -7.60742,1.55664 15,15 0 0 0 -6.70704,20.125 l 25,50 a 15,15 0 0 0 20.125,6.70704 15,15 0 0 0 6.70704,-20.125 l -25,-50 a 15,15 0 0 0 -12.51758,-8.26368 z"
       id="path902" />
  </g>
  <!--right cheek markings-->
  <g
     id="line16">
    <path
       style="color:#000000;fill:#000000;stroke-width:6%;stroke-linecap:round;-inkscape-stroke:none"
       d="m 325,350 25,50"
       id="path894" />
    <path
       style="color:#000000;fill:#000000;stroke-linecap:round;-inkscape-stroke:none"
       d="m 325.89844,335.02734 a 15,15 0 0 0 -7.60742,1.55664 15,15 0 0 0 -6.70704,20.125 l 25,50 a 15,15 0 0 0 20.125,6.70704 15,15 0 0 0 6.70704,-20.125 l -25,-50 a 15,15 0 0 0 -12.51758,-8.26368 z"
       id="path896" />
  </g>
  <g
     id="line18">
    <path
       style="color:#000000;fill:#000000;stroke-width:6%;stroke-linecap:round;-inkscape-stroke:none"
       d="m 375,350 25,50"
       id="path888" />
    <path
       style="color:#000000;fill:#000000;stroke-linecap:round;-inkscape-stroke:none"
       d="m 375.89844,335.02734 a 15,15 0 0 0 -7.60742,1.55664 15,15 0 0 0 -6.70704,20.125 l 25,50 a 15,15 0 0 0 20.125,6.70704 15,15 0 0 0 6.70704,-20.125 l -25,-50 a 15,15 0 0 0 -12.51758,-8.26368 z"
       id="path890" />
  </g>
  <g
     id="line20">
    <path
       style="color:#000000;fill:#000000;stroke-width:6%;stroke-linecap:round;-inkscape-stroke:none"
       d="m 425,350 25,50"
       id="path882" />
    <path
       style="color:#000000;fill:#000000;stroke-linecap:round;-inkscape-stroke:none"
       d="m 425.89844,335.02734 a 15,15 0 0 0 -7.60742,1.55664 15,15 0 0 0 -6.70704,20.125 l 25,50 a 15,15 0 0 0 20.125,6.70704 15,15 0 0 0 6.70704,-20.125 l -25,-50 a 15,15 0 0 0 -12.51758,-8.26368 z"
       id="path884" />
  </g>
  <!--mouth-->
  <g
     id="line22">
    <path
       style="color:#000000;fill:#000000;stroke-width:6%;stroke-linecap:round;-inkscape-stroke:none"
       d="M 175,475 H 325"
       id="path876" />
    <path
       style="color:#000000;fill:#000000;stroke-linecap:round;-inkscape-stroke:none"
       d="m 175,460 a 15,15 0 0 0 -15,15 15,15 0 0 0 15,15 h 150 a 15,15 0 0 0 15,-15 15,15 0 0 0 -15,-15 z"
       id="path878" />
  </g>
</svg>
